<?xml version="1.0"?>
<svg xmlns="http://www.w3.org/2000/svg" xmlns:xlink="http://www.w3.org/1999/xlink" xmlns:svgjs="http://svgjs.com/svgjs" version="1.1" width="512" height="512" x="0" y="0" viewBox="0 0 496 496" style="enable-background:new 0 0 512 512" xml:space="preserve" class=""><g>
<g xmlns="http://www.w3.org/2000/svg">
	<g>
		<g>
			<path d="M392,328c-22.056,0-40,17.944-40,40c0,12.504,6.032,24.32,16,31.832V448h48v-48.168c9.968-7.512,16-19.328,16-31.832     C432,345.944,414.056,328,392,328z M403.976,388.648L400,390.96V432h-16v-41.04l-3.976-2.312     C372.496,384.264,368,376.544,368,368c0-13.232,10.768-24,24-24s24,10.768,24,24C416,376.544,411.504,384.264,403.976,388.648z" fill="#ff630e" data-original="#000000" style="" class=""/>
			<path d="M411.312,0H48v88h-8c-22.056,0-40,17.944-40,40v368h496V176v-8V84.688L411.312,0z M416,27.312L468.688,80H416V27.312z      M448,96v72H168v-40c0-22.056-17.944-40-40-40H96V48h304v48H448z M64,16h336v16H80v56H64V16z M480,480h-32.832     c13.264-8.344,24.488-19.568,32.832-32.832V480z M392,480c-48.52,0-88-39.48-88-88c0-48.52,39.48-88,88-88     c48.52,0,88,39.48,88,88C480,440.52,440.52,480,392,480z M392,232c-26.472,0-48,21.528-48,48v19.832     c-5.664,2.96-11.008,6.448-16,10.36V280c0-35.288,28.712-64,64-64c35.288,0,64,28.712,64,64v30.2     c-4.992-3.92-10.336-7.4-16-10.36V280C440,253.528,418.472,232,392,232z M424,280v13.088c-10.088-3.272-20.832-5.088-32-5.088     c-11.168,0-21.912,1.816-32,5.088V280c0-17.648,14.352-32,32-32S424,262.352,424,280z M480,336.832     c-2.448-3.896-5.072-7.664-8-11.192V280c0-44.112-35.888-80-80-80s-80,35.888-80,80v45.64c-14.976,18.024-24,41.152-24,66.36     c0,37.064,19.56,69.576,48.832,88H16V128c0-13.232,10.768-24,24-24h88c13.232,0,24,10.768,24,24v56h328V336.832z M480,168h-16V96     h16V168z" fill="#ff630e" data-original="#000000" style="" class=""/>
			<rect x="416" y="136" width="16" height="16" fill="#ff630e" data-original="#000000" style="" class=""/>
			<rect x="184" y="136" width="216" height="16" fill="#ff630e" data-original="#000000" style="" class=""/>
			<rect x="48" y="264" width="232" height="16" fill="#ff630e" data-original="#000000" style="" class=""/>
			<rect x="48" y="296" width="200" height="16" fill="#ff630e" data-original="#000000" style="" class=""/>
			<rect x="264" y="296" width="16" height="16" fill="#ff630e" data-original="#000000" style="" class=""/>
		</g>
	</g>
</g>
<g xmlns="http://www.w3.org/2000/svg">
</g>
<g xmlns="http://www.w3.org/2000/svg">
</g>
<g xmlns="http://www.w3.org/2000/svg">
</g>
<g xmlns="http://www.w3.org/2000/svg">
</g>
<g xmlns="http://www.w3.org/2000/svg">
</g>
<g xmlns="http://www.w3.org/2000/svg">
</g>
<g xmlns="http://www.w3.org/2000/svg">
</g>
<g xmlns="http://www.w3.org/2000/svg">
</g>
<g xmlns="http://www.w3.org/2000/svg">
</g>
<g xmlns="http://www.w3.org/2000/svg">
</g>
<g xmlns="http://www.w3.org/2000/svg">
</g>
<g xmlns="http://www.w3.org/2000/svg">
</g>
<g xmlns="http://www.w3.org/2000/svg">
</g>
<g xmlns="http://www.w3.org/2000/svg">
</g>
<g xmlns="http://www.w3.org/2000/svg">
</g>
</g></svg>
