<?xml version="1.0"?>
<svg xmlns="http://www.w3.org/2000/svg" xmlns:xlink="http://www.w3.org/1999/xlink" xmlns:svgjs="http://svgjs.com/svgjs" version="1.1" width="512" height="512" x="0" y="0" viewBox="0 0 512.001 512.001" style="enable-background:new 0 0 512 512" xml:space="preserve" class=""><g>
<g xmlns="http://www.w3.org/2000/svg">
	<g>
		<path d="M440.003,476.583c-22.811-114.541-21.825-109.664-21.937-110.135c-2.991-14.478-11.401-26.499-25.035-34.03    c-6.377-3.531-10.054-4.081-13.269-5.131l-56.041-19.465l-18.677-12.81v-14.53c27.312-16.225,44.7-44.168,47.879-74.406    c22.823,1.058,38.73-20.756,29.161-39.854v-61.14c0-44.214-24.046-59.596-31.393-63.262    C314.744-1.093,247.619-12.099,196.733,14.012l-0.098,0.049c-0.873,0.513-11.36,5.365-24.274,16.163    c-3.133,2.71-3.476,7.446-0.767,10.579c2.714,3.137,7.451,3.472,10.579,0.767c49.836-41.846,123.806-31.093,158.002,11.072    c0.842,1.037,1.867,1.802,3.118,2.27c0.972,0.39,23.792,9.994,23.792,50.17v47.334c-4.161-1.762-8.723-2.665-13.585-2.529v-24.531    c0-6.223-4.688-11.366-10.904-11.966c-12.604-1.217-19.666-9.429-23.372-16.102c-4.638-8.353-15.71-10.354-22.97-4.15    c-33.441,28.585-71.945,30.037-98.357,26.228c-19.951-2.88-38.507,10.709-41.736,30.531c-4.856-0.21-9.654,0.65-14.065,2.518    c0.029-25.821-2.95-53.915,18.168-86.108c2.266-3.468,1.291-8.115-2.177-10.381c-3.467-2.267-8.115-1.294-10.381,2.176    c-28.74,44.038-18.457,83.498-20.611,108.119c-9.564,19.091,6.322,40.913,29.16,39.853c3.728,35.613,25.666,56.1,26.187,56.992    l0.001,0.001c3.894,3.733,10.887,11.531,24.518,19.044v12.898l-18.675,12.809c-73.089,25.389-65.671,22.308-71.609,25.936    c-11.223,6.913-19.002,17.486-22.244,30.504c-0.639,2.573,0.422-2.289-22.431,112.322c-0.46,2.315-0.702,6.828-0.289,10.655    C73.407,502.974,84.569,512,102.337,512h206.084c4.143,0,7.5-3.357,7.5-7.5s-3.357-7.5-7.5-7.5H155.079v-68.718    c0-4.143-3.358-7.5-7.5-7.5s-7.5,3.357-7.5,7.5v68.719h-37.744c-11.759,0-17.281-5.044-15.579-17.707    c20.523-100.284,20.567-108.376,23.924-116.593c0.585-0.819,3.819-12.391,19.675-19.122c1.639-0.672,0.617-0.222,6.255-1.94    c0.348-0.1-1.371,0.484,25.564-8.868l17.965,33.164c1.973,3.642,6.523,4.997,10.167,3.022c3.642-1.973,4.995-6.525,3.022-10.167    l-16.796-31.007l11.486-3.99c5.537,10.222,54.562,100.719,59.891,110.555c3.289,6.092,11.663,6.396,15.521,1.076    c0.699-0.963-3.294,6.205,60.461-111.665l11.484,3.989l-60.715,112.309c-8.004,14.805-29.283,14.806-37.297,0.016l-27.363-50.512    c-1.974-3.642-6.524-4.998-10.167-3.022c-3.642,1.974-4.995,6.525-3.022,10.167l27.364,50.513    c13.687,25.261,50.021,25.238,63.68-0.028l61.875-114.456c26.875,9.331,25.299,8.798,25.647,8.898    c5.287,1.611,4.699,1.301,6.256,1.938c5.735,2.443,9.158,5.262,9.058,5.188c5.881,4.743,9.936,10.223,12.102,18.292    c0.355,1.28,22.62,111.672,22.711,115.397c0.223,9.416-3.843,14.553-15.831,14.553h-37.747v-68.719c0-4.143-3.357-7.5-7.5-7.5    s-7.5,3.357-7.5,7.5v68.719h-13.509c-4.143,0-7.5,3.357-7.5,7.5s3.357,7.5,7.5,7.5h66.253c17.768,0,28.929-9.026,30.621-24.756    C440.7,483.492,440.46,478.883,440.003,476.583z M353.499,164.892c8.649-0.457,16.39,5.369,16.39,13.097    c0,7.805-7.825,13.551-16.39,13.098V164.892z M155.681,191.087c-8.648,0.458-16.39-5.369-16.39-13.097    c0-7.805,7.825-13.551,16.39-13.098V191.087z M195.753,134.212c29.481,4.255,72.538,2.562,110.245-29.672l0.111,0.029    c7.244,13.045,18.674,21.28,32.39,23.416v26.559l-8.558,5.051c-3.524-5.078-9.388-8.416-16.022-8.416h-34.321    c-8.095,0-15.049,4.961-17.994,12h-14.028c-2.945-7.039-9.9-12-17.995-12H195.26c-6.635,0-12.5,3.338-16.022,8.416l-8.519-5.029    C171.457,141.745,183.047,132.374,195.753,134.212z M318.419,170.679v14.936c0,6.506-5.293,11.798-11.799,11.798h-19.725    c-6.505,0-11.798-5.293-11.798-11.798v-14.936h0.001c0-2.439,2.061-4.5,4.5-4.5h34.321    C316.358,166.179,318.419,168.24,318.419,170.679z M234.081,170.679v14.936c0,6.506-5.292,11.798-11.798,11.798h-19.725    c-6.506,0-11.798-5.293-11.798-11.798v-14.936c0-2.439,2.061-4.5,4.5-4.5h34.321C232.02,166.179,234.081,168.24,234.081,170.679z     M190.907,250.047c-24.273-28.292-19.594-55.763-20.226-78.085l5.081,2.999v10.654c0,14.776,12.021,26.798,26.797,26.798h19.725    c14.776,0,26.797-12.021,26.797-26.798v-7.437h11.021v7.437c0,14.776,12.021,26.798,26.797,26.798h19.725    c14.776,0,26.798-12.021,26.798-26.798v-10.654l5.081-2.999v23.451c0,44.608-35.306,83.366-83.91,83.9    c-0.101-0.001-1.111-0.008-1.011-0.007c-12.965-0.131-22.928-3.454-21.92-3.171C216.945,272.053,202.909,263.627,190.907,250.047z     M256.003,333.953l-34.042-37.88v-7.274c15.655,5.437,31.89,6.687,47.007,4.483c4.218-0.613,8.758-1.618,11.414-2.368    c0.631-0.205,4.252-1.071,9.663-3.153v8.313L256.003,333.953z M264.45,360.681l-3.314,6.824h-10.265l-3.315-6.824l8.447-6.204    L264.45,360.681z M236.238,381.317l-4.776-8.816l3.804-2.793l2.843,5.854L236.238,381.317z M224.302,359.151l-22.787-42.152    l11.785-8.127l31.593,35.156C243.068,345.366,226.094,357.834,224.302,359.151z M256.001,417.797l-9.906-18.286l5.53-17.007h8.76    l5.52,16.977C262.765,405.285,259.85,410.677,256.001,417.797z M275.752,381.262l-1.854-5.702l2.843-5.854l3.763,2.764    L275.752,381.262z M287.706,359.151c-1.949-1.431-18.242-13.398-20.59-15.123l31.593-35.156l11.785,8.127    C302.925,330.997,292.617,350.064,287.706,359.151z" fill="#ff630e" data-original="#000000" style="" class=""/>
	</g>
</g>
<g xmlns="http://www.w3.org/2000/svg">
</g>
<g xmlns="http://www.w3.org/2000/svg">
</g>
<g xmlns="http://www.w3.org/2000/svg">
</g>
<g xmlns="http://www.w3.org/2000/svg">
</g>
<g xmlns="http://www.w3.org/2000/svg">
</g>
<g xmlns="http://www.w3.org/2000/svg">
</g>
<g xmlns="http://www.w3.org/2000/svg">
</g>
<g xmlns="http://www.w3.org/2000/svg">
</g>
<g xmlns="http://www.w3.org/2000/svg">
</g>
<g xmlns="http://www.w3.org/2000/svg">
</g>
<g xmlns="http://www.w3.org/2000/svg">
</g>
<g xmlns="http://www.w3.org/2000/svg">
</g>
<g xmlns="http://www.w3.org/2000/svg">
</g>
<g xmlns="http://www.w3.org/2000/svg">
</g>
<g xmlns="http://www.w3.org/2000/svg">
</g>
</g></svg>
