<svg width="60" height="60" viewBox="0 0 60 60" fill="none" xmlns="http://www.w3.org/2000/svg">
<path d="M48.5742 22.0928H44.7967L45.9349 9.02528C45.937 9.00161 45.9373 8.97829 45.9374 8.95496C45.9374 8.95297 45.9377 8.9511 45.9377 8.94911C45.9377 8.94875 45.9377 8.94852 45.9377 8.94817C45.9377 8.5925 45.7231 8.27902 45.4078 8.14274C45.4051 8.14156 45.4025 8.14016 45.3998 8.13899C45.3802 8.13078 45.3599 8.12375 45.3396 8.11695C45.3319 8.11449 45.3247 8.11145 45.3171 8.1091C45.3004 8.10406 45.2833 8.10008 45.2663 8.09598C45.2544 8.09316 45.2429 8.08977 45.2308 8.08742C45.2159 8.08449 45.2005 8.08262 45.1852 8.08039C45.1709 8.07828 45.1569 8.07582 45.1424 8.07453C45.14 8.0743 45.1378 8.07383 45.1353 8.07359C45.1198 8.07219 45.1046 8.07242 45.0892 8.07184C45.0789 8.07148 45.0688 8.07031 45.0585 8.07031H45.0475C45.0466 8.07031 45.0456 8.07031 45.0448 8.07031H27.0716C26.5864 8.07031 26.1927 8.46406 26.1927 8.94922C26.1927 9.43321 26.5864 9.82813 27.0716 9.82813H44.1005L42.3514 29.9112C42.3511 29.9127 42.3511 29.9143 42.3509 29.9158L41.9096 34.9831H11.3693L11.8802 29.7099H17.6951C18.1807 29.7099 18.5741 29.3164 18.5741 28.831C18.5741 28.3456 18.1807 27.9521 17.6951 27.9521H12.0506L13.1292 16.8198H22.3841C22.8696 16.8198 23.263 16.4263 23.263 15.9409C23.263 15.4555 22.8696 15.062 22.3841 15.062H13.2995L13.8067 9.82813H23.556C24.0399 9.82813 24.4349 9.43321 24.4349 8.94922C24.4349 8.46406 24.0399 8.07031 23.556 8.07031H13.009C13.0086 8.07031 13.0082 8.07043 13.0077 8.07043C12.5949 8.07031 12.2368 8.36094 12.1502 8.76383C12.1496 8.76676 12.1485 8.76957 12.1479 8.7725C12.1435 8.79442 12.1406 8.8168 12.1376 8.8393C12.1368 8.84645 12.1353 8.85325 12.1346 8.86039C12.1345 8.8618 12.1341 8.86309 12.134 8.8645L11.5335 15.062H0.87891C0.3934 15.062 0 15.4555 0 15.9409C0 16.4263 0.3934 16.8198 0.87891 16.8198H11.3631L10.2845 27.9521H7.1487C6.66319 27.9521 6.26979 28.3456 6.26979 28.831C6.26979 29.3164 6.66319 29.7099 7.1487 29.7099H10.1143L9.52691 35.771C9.5268 35.7719 9.5268 35.7728 9.52668 35.7737L8.61859 45.1462C8.61847 45.1473 8.61835 45.1485 8.61824 45.1494L8.61789 45.1528C8.61671 45.165 8.61683 45.1769 8.61613 45.1891C8.61531 45.2053 8.61367 45.2211 8.61367 45.2375C8.61367 45.2382 8.61378 45.2389 8.61378 45.2398C8.61378 45.2624 8.61542 45.2846 8.61706 45.3069C8.61777 45.3141 8.61753 45.3213 8.61835 45.3283C8.6207 45.3511 8.62457 45.3735 8.62867 45.3957C8.62984 45.4023 8.63042 45.409 8.63171 45.4154C8.63511 45.4323 8.63992 45.4486 8.64437 45.4651C8.64742 45.4767 8.64988 45.4885 8.65339 45.4999C8.65445 45.5031 8.65585 45.5061 8.65679 45.5094C8.69933 45.6402 8.77152 45.7576 8.86574 45.8535C8.8675 45.8552 8.8689 45.8572 8.87066 45.8589C8.88003 45.8682 8.89023 45.8767 8.90007 45.8856C8.96066 45.9411 9.0291 45.9882 9.10398 46.0251C9.11957 46.0329 9.13492 46.041 9.15086 46.0476C9.15566 46.0498 9.16082 46.0512 9.16574 46.053C9.18777 46.0618 9.20992 46.0703 9.23277 46.0774C9.23488 46.078 9.23687 46.0784 9.23898 46.0791C9.265 46.0868 9.29125 46.0936 9.31808 46.0991C9.3216 46.0998 9.32523 46.1 9.32863 46.1007C9.35418 46.1055 9.37984 46.1096 9.40597 46.1122C9.40656 46.1122 9.40703 46.1123 9.40762 46.1125C9.43644 46.1153 9.46504 46.1167 9.4934 46.1167C9.49375 46.1167 9.49422 46.1166 9.49469 46.1166H13.4074C13.8394 49.3923 16.6478 51.9294 20.0398 51.9294C23.4316 51.9294 26.24 49.3923 26.6721 46.1166H40.7697C41.2019 49.3923 44.0102 51.9294 47.4021 51.9294C50.7938 51.9294 53.6025 49.3923 54.0347 46.1166H57.9483C57.9489 46.1166 57.9496 46.1167 57.9502 46.1167C57.9795 46.1167 58.0083 46.1149 58.0369 46.1121C58.042 46.1116 58.0469 46.1106 58.0521 46.11C58.075 46.1073 58.0977 46.1041 58.12 46.0997C58.1296 46.0978 58.1388 46.0952 58.1483 46.093C58.1655 46.089 58.1829 46.0848 58.1998 46.0798C58.2112 46.0764 58.2224 46.0724 58.2336 46.0685C58.248 46.0636 58.2625 46.0584 58.2766 46.0527C58.2888 46.0479 58.3004 46.0426 58.3123 46.0373C58.3252 46.0314 58.338 46.0253 58.3506 46.0188C58.3625 46.0127 58.374 46.0064 58.3855 45.9998C58.3976 45.9928 58.4095 45.9855 58.4214 45.978C58.4324 45.971 58.4434 45.9639 58.4539 45.9564C58.4659 45.948 58.4773 45.9392 58.4889 45.9303C58.4985 45.9227 58.5082 45.9152 58.5176 45.9073C58.5296 45.8971 58.541 45.8864 58.5525 45.8755C58.5605 45.8679 58.5688 45.8604 58.5765 45.8524C58.5887 45.84 58.6003 45.8269 58.6119 45.8136C58.6181 45.8065 58.6246 45.7996 58.6305 45.7923C58.6434 45.7764 58.6552 45.7599 58.6669 45.7434C58.6709 45.7377 58.6753 45.7323 58.6792 45.7264C58.6935 45.705 58.707 45.683 58.7194 45.6602C58.7203 45.6588 58.7212 45.6575 58.7218 45.656C58.7351 45.6316 58.7473 45.6067 58.7582 45.5809C58.7612 45.5735 58.7635 45.5659 58.7665 45.5585C58.7736 45.5403 58.7807 45.5222 58.7866 45.5033C58.7905 45.4911 58.7933 45.4786 58.7967 45.4663C58.8006 45.4516 58.8047 45.4371 58.808 45.4222C58.8109 45.409 58.8128 45.3954 58.815 45.3819C58.817 45.3701 58.8196 45.3585 58.8211 45.3464C58.8584 45.0478 59.5466 39.526 59.854 35.9555C59.8543 35.9521 59.8545 35.9486 59.8548 35.9452C59.9433 34.916 60 34.0492 60 33.5186C60 27.2185 54.8744 22.0928 48.5742 22.0928ZM44.6436 23.8508H48.2393L47.78 29.1238H44.1843L44.6436 23.8508ZM20.0401 50.1715C17.3193 50.1715 15.1059 47.958 15.1059 45.2374C15.1059 42.5168 17.3194 40.3033 20.0401 40.3033C22.7607 40.3033 24.9742 42.5168 24.9742 45.2374C24.9742 47.958 22.7607 50.1715 20.0401 50.1715ZM47.4021 50.1715C44.6814 50.1715 42.4681 47.958 42.4681 45.2374C42.4681 42.5168 44.6815 40.3033 47.4021 40.3033C50.1228 40.3033 52.3363 42.5168 52.3363 45.2374C52.3363 47.958 50.1228 50.1715 47.4021 50.1715ZM57.1717 44.3581H54.0349C53.6029 41.0822 50.7944 38.5449 47.4023 38.5449C44.0104 38.5449 41.2019 41.0823 40.7699 44.3581H26.6724C26.2405 41.0822 23.4321 38.5449 20.0401 38.5449C16.6481 38.5449 13.8394 41.0823 13.4075 44.3581H10.4609L11.1991 36.7405H42.715V36.7409C42.7155 36.7409 42.7158 36.7409 42.7163 36.7409C42.7457 36.7409 42.7749 36.7393 42.8037 36.7364C42.8091 36.7359 42.8144 36.7347 42.8198 36.734C42.8427 36.7313 42.8656 36.728 42.8881 36.7236C42.8978 36.7216 42.9073 36.7189 42.9169 36.7166C42.9345 36.7123 42.9521 36.7082 42.9692 36.7031C42.9809 36.6996 42.992 36.6953 43.0034 36.6914C43.0182 36.6862 43.0329 36.6812 43.0472 36.6753C43.0595 36.6703 43.0714 36.6646 43.0833 36.659C43.0963 36.653 43.1093 36.6471 43.1219 36.6405C43.1338 36.6342 43.1456 36.6274 43.1574 36.6206C43.1695 36.6135 43.1814 36.6064 43.1931 36.5989C43.2045 36.5915 43.2153 36.5838 43.2262 36.576C43.2378 36.5678 43.249 36.5594 43.2603 36.5506C43.2704 36.5425 43.2803 36.5342 43.2902 36.5257C43.3013 36.516 43.3122 36.5062 43.3228 36.496C43.3317 36.4875 43.3406 36.4787 43.3492 36.4696C43.3598 36.4586 43.37 36.4473 43.3801 36.4357C43.3879 36.4265 43.3956 36.4174 43.4031 36.408C43.4129 36.3957 43.4221 36.383 43.4313 36.3703C43.4382 36.3607 43.4449 36.351 43.4514 36.3412C43.46 36.328 43.4682 36.3144 43.476 36.3005C43.482 36.2902 43.4881 36.2799 43.4935 36.2694C43.5009 36.2555 43.5072 36.2415 43.5139 36.2273C43.519 36.2159 43.5243 36.2048 43.529 36.1931C43.5347 36.1792 43.5395 36.1651 43.5446 36.1509C43.5489 36.1383 43.5535 36.1258 43.5574 36.1129C43.5612 36.0993 43.5644 36.0854 43.5679 36.0716C43.5713 36.0576 43.5751 36.0438 43.5778 36.0296C43.5804 36.0158 43.5821 36.0017 43.5842 35.9876C43.5863 35.9731 43.5888 35.9588 43.5902 35.9441C43.5904 35.9419 43.5909 35.94 43.591 35.9378L44.0315 30.8812H48.5739C51.2668 30.8812 52.4813 32.2764 53.767 33.7537C54.8279 34.9726 56.0123 36.3325 58.0256 36.6643C57.7699 39.3678 57.3566 42.8385 57.1717 44.3581ZM58.1759 34.903C56.8698 34.6367 56.0662 33.7185 55.0928 32.6001C53.8753 31.2015 52.389 29.4946 49.5398 29.1766L49.9945 23.9561C54.6544 24.6453 58.2422 28.6704 58.2422 33.5188C58.2422 33.8483 58.2176 34.3269 58.1759 34.903Z" fill="#D8AB37"/>
<path d="M47.4021 42.0146C45.6251 42.0146 44.1794 43.4603 44.1794 45.2373C44.1794 47.0144 45.6251 48.46 47.4021 48.46C49.179 48.46 50.6247 47.0144 50.6247 45.2373C50.6247 43.4604 49.179 42.0146 47.4021 42.0146ZM47.4021 46.7022C46.5943 46.7022 45.9372 46.0451 45.9372 45.2373C45.9372 44.4295 46.5943 43.7725 47.4021 43.7725C48.2098 43.7725 48.8669 44.4295 48.8669 45.2373C48.8669 46.0451 48.2098 46.7022 47.4021 46.7022Z" fill="#D8AB37"/>
<path d="M20.0401 42.0146C18.2631 42.0146 16.8174 43.4603 16.8174 45.2373C16.8174 47.0144 18.2631 48.46 20.0401 48.46C21.817 48.46 23.2627 47.0144 23.2627 45.2373C23.2627 43.4604 21.817 42.0146 20.0401 42.0146ZM20.0401 46.7022C19.2323 46.7022 18.5752 46.0451 18.5752 45.2373C18.5752 44.4295 19.2323 43.7725 20.0401 43.7725C20.8478 43.7725 21.5049 44.4295 21.5049 45.2373C21.5049 46.0451 20.8477 46.7022 20.0401 46.7022Z" fill="#D8AB37"/>
<path d="M8.32032 22.093H4.0235C3.53799 22.093 3.14459 22.4865 3.14459 22.9719C3.14459 23.4573 3.53799 23.8508 4.0235 23.8508H8.32032C8.80583 23.8508 9.19923 23.4573 9.19923 22.9719C9.19923 22.4865 8.80583 22.093 8.32032 22.093Z" fill="#D8AB37"/>
</svg>
