<svg width="60" height="60" viewBox="0 0 60 60" fill="none" xmlns="http://www.w3.org/2000/svg">
<g clip-path="url(#clip0)">
<path d="M60 4.08731C60.0046 2.99173 59.5818 1.96317 58.8095 1.19091C58.0372 0.418641 57.0067 -0.00346814 55.9132 0.000516232C54.8208 0.00508654 53.7923 0.434344 53.0174 1.20919C52.6893 1.53731 52.0924 2.24606 51.7659 2.63946C51.423 3.05255 51.4798 3.66544 51.8929 4.00821C52.3058 4.3511 52.9187 4.29438 53.2616 3.8813C53.773 3.26536 54.1957 2.78032 54.392 2.58391C54.8019 2.17411 55.345 1.947 55.9213 1.94454C55.9245 1.94454 55.9274 1.94454 55.9305 1.94454C56.5003 1.94454 57.0343 2.16485 57.4349 2.56552C57.8377 2.96829 58.0583 3.50583 58.0559 4.07911C58.0534 4.65532 57.8263 5.19837 57.4165 5.60841C57.0496 5.97532 55.7884 6.97575 53.9815 8.23798C52.9126 6.41056 50.9303 5.1795 48.6647 5.1795H34.4306C32.5092 5.1795 30.7029 5.92774 29.3441 7.2863L0.892148 35.7386C0.316875 36.3139 0 37.0788 0 37.8923C0 38.7058 0.316875 39.4708 0.892148 40.0459L19.9547 59.1085C20.5486 59.7023 21.3284 59.9991 22.1084 59.9991C22.8884 59.9991 23.6684 59.7022 24.262 59.1085L52.7142 30.6564C54.0728 29.2977 54.821 27.4914 54.821 25.5699V11.3359C54.821 10.9158 54.7785 10.5057 54.6979 10.109C56.7546 8.69372 58.2645 7.50977 58.7911 6.98313C59.5662 6.20829 59.9954 5.17985 60 4.08731ZM52.877 25.5699C52.877 26.972 52.3309 28.2903 51.3396 29.2816L22.8874 57.7339C22.458 58.1634 21.7589 58.1634 21.3294 57.7339L2.26688 38.6713C2.05887 38.4633 1.94414 38.1866 1.94414 37.8923C1.94414 37.5979 2.05875 37.3213 2.26688 37.1133L30.7189 8.66126C31.7105 7.66985 33.0286 7.12388 34.4306 7.12388H48.6646C50.263 7.12388 51.6564 8.01884 52.3698 9.33391C51.2216 10.0942 49.9359 10.9027 48.572 11.6977C48.5295 11.6511 48.486 11.6049 48.4409 11.5598C46.849 9.9679 44.2589 9.9679 42.667 11.5598C41.0752 13.1516 41.0752 15.7417 42.667 17.3336C43.463 18.1295 44.5085 18.5274 45.5539 18.5274C46.5994 18.5274 47.6449 18.1295 48.4409 17.3336C49.5034 16.2711 49.8555 14.7641 49.4998 13.4058C50.6861 12.7152 51.8252 12.0094 52.8765 11.3266C52.8766 11.3299 52.8769 11.3329 52.8769 11.3361V25.5699H52.877ZM44.6858 14.8834C44.8566 15.2229 45.1992 15.4189 45.555 15.4189C45.7018 15.4189 45.851 15.3855 45.9912 15.3149C46.5609 15.0283 47.1287 14.7302 47.6909 14.4248C47.6965 14.9797 47.4891 15.5363 47.0665 15.9589C46.2326 16.7927 44.876 16.7927 44.0421 15.9589C43.2083 15.125 43.2083 13.7684 44.0421 12.9345C44.4591 12.5175 45.0067 12.3092 45.5543 12.3092C45.9879 12.3092 46.4202 12.4421 46.789 12.7033C46.2388 13.0024 45.6804 13.2952 45.1175 13.5784C44.6377 13.8195 44.4444 14.4039 44.6858 14.8834Z" fill="#D8AB37"/>
<path d="M24.5193 28.1501C22.9275 26.558 20.3373 26.5581 18.7457 28.15C17.1538 29.7419 17.1538 32.3319 18.7457 33.9238C19.5417 34.7199 20.587 35.1177 21.6326 35.1176C22.6779 35.1176 23.7236 34.7195 24.5194 33.9238C25.2906 33.1526 25.7153 32.1274 25.7153 31.0369C25.7153 29.9464 25.2905 28.9211 24.5193 28.1501ZM23.1446 32.549C22.3107 33.3829 20.9542 33.3828 20.1204 32.549C19.2866 31.7151 19.2866 30.3585 20.1204 29.5246C20.5373 29.1076 21.085 28.8993 21.6326 28.8993C22.1802 28.8993 22.7278 29.1076 23.1448 29.5246C23.5487 29.9285 23.7711 30.4655 23.7711 31.0368C23.771 31.6081 23.5486 32.145 23.1446 32.549Z" fill="#D8AB37"/>
<path d="M39.1828 28.1498C37.5909 26.5578 35.0007 26.5579 33.4092 28.1498C31.8173 29.7416 31.8173 32.3317 33.4092 33.9236C34.2052 34.7195 35.2506 35.1174 36.2961 35.1174C37.3416 35.1174 38.3871 34.7195 39.1829 33.9236C40.7747 32.3317 40.7747 29.7416 39.1828 28.1498ZM37.8081 32.5487C36.9742 33.3826 35.6176 33.3825 34.7838 32.5487C33.95 31.7148 33.95 30.3583 34.7838 29.5244C35.2008 29.1074 35.7484 28.8991 36.296 28.8991C36.8436 28.8991 37.3913 29.1074 37.8082 29.5244C38.642 30.3583 38.642 31.7148 37.8081 32.5487Z" fill="#D8AB37"/>
<path d="M28.9643 19.8003C28.4275 19.8003 27.9922 20.2354 27.9922 20.7724V41.3012C27.9922 41.838 28.4275 42.2732 28.9643 42.2732C29.5011 42.2732 29.9364 41.838 29.9364 41.3012V20.7724C29.9364 20.2354 29.5011 19.8003 28.9643 19.8003Z" fill="#D8AB37"/>
</g>
<defs>
<clipPath id="clip0">
<rect width="60" height="60" fill="white"/>
</clipPath>
</defs>
</svg>
