<svg width="60" height="60" viewBox="0 0 60 60" fill="none" xmlns="http://www.w3.org/2000/svg">
<g clip-path="url(#clip0)">
<path d="M57.4397 30.6216H55.3569C55.1619 27.4548 54.3906 24.3983 53.0557 21.525C52.852 21.0851 52.3302 20.8946 51.8903 21.0983C51.4503 21.3025 51.2595 21.8243 51.4636 22.2643C52.69 24.9051 53.4055 27.7126 53.5977 30.6216H13.3942C12.9094 30.6216 12.5166 31.0144 12.5166 31.4992C12.5166 31.9839 12.9094 32.3767 13.3942 32.3767H57.4397C57.8838 32.3767 58.2445 32.7379 58.2445 33.1819V34.2531C58.2445 34.6971 57.8838 35.0583 57.4397 35.0583H2.56027C2.11624 35.0583 1.75552 34.6971 1.75552 34.2531V33.1819C1.75552 32.7379 2.11624 32.3767 2.56027 32.3767H9.30313C9.7879 32.3767 10.1811 31.9839 10.1811 31.4992C10.1811 31.0144 9.7879 30.6216 9.30313 30.6216H6.40228C6.78909 24.7911 9.2894 19.3671 13.5036 15.2646C17.5648 11.3113 22.8127 8.98407 28.4212 8.61511C28.4244 8.61511 28.4276 8.61557 28.4308 8.61511C28.6697 8.59955 28.9059 8.58765 29.1394 8.57895C29.1861 8.57758 29.2323 8.57529 29.279 8.57391C29.3623 8.57117 29.4452 8.56934 29.5271 8.5675C29.6846 8.56476 29.8421 8.56201 30 8.56201C30.2097 8.56201 30.4193 8.56613 30.6285 8.57162C30.6903 8.57346 30.7516 8.57529 30.8139 8.57712C30.975 8.58261 31.1357 8.59085 31.2964 8.59955C31.3815 8.60413 31.4667 8.6087 31.5523 8.6142C38.7579 9.08752 45.3873 12.8348 49.5126 18.8434C49.7868 19.2426 50.3334 19.3446 50.733 19.07C51.1327 18.7958 51.2343 18.2492 50.9596 17.8496C46.9002 11.9366 40.5817 8.06396 33.598 7.06512C34.0356 6.3858 34.2815 5.58609 34.2815 4.74838C34.2815 4.27139 34.0686 3.39203 32.6431 2.86743C31.9313 2.60559 30.9924 2.46094 30 2.46094C29.0071 2.46094 28.0682 2.60559 27.3564 2.86743C25.9309 3.39203 25.7185 4.27139 25.7185 4.74838C25.7185 5.5838 25.9634 6.38214 26.3983 7.06009C21.096 7.81036 16.1783 10.2109 12.2791 14.0067C7.72385 18.441 5.03265 24.3132 4.6431 30.6212H2.56027C1.14853 30.6216 0 31.7702 0 33.1819V34.2531C0 35.6653 1.14853 36.8138 2.56027 36.8138H12.0154C11.5434 37.137 11.0912 37.4995 10.6677 37.9019L10.6503 37.9184C10.6233 37.9436 10.5977 37.9706 10.5743 37.9994L6.40732 43.0595C5.88455 42.7277 5.26566 42.6068 4.655 42.724C4.01825 42.8458 3.46756 43.2083 3.1041 43.7448L1.4653 46.1613C0.715942 47.2668 1.00525 48.777 2.10983 49.5273L13.3237 57.1454C13.7302 57.4214 14.1998 57.5652 14.6809 57.5652C14.8338 57.5652 14.9881 57.5505 15.1419 57.5212C15.7782 57.3994 16.3289 57.0369 16.6924 56.5004L18.3311 54.0839C19.0805 52.9784 18.7917 51.4682 17.6871 50.7179L17.623 50.6744C18.4035 49.7887 19.444 49.1537 20.576 48.8919C22.9614 48.3394 25.7684 48.6951 27.6723 49.0105C30.0275 49.4005 32.5012 49.2673 34.8262 48.625L38.058 47.7319C40.2109 47.1368 42.1921 46.1348 43.9471 44.7533C43.9604 44.7427 43.9732 44.7322 43.9861 44.7208L49.5346 39.8067C50.4803 39.0829 50.6863 37.8296 50.36 36.8138H57.4397C58.8515 36.8138 60 35.6653 60 34.2535V33.1819C60 31.7702 58.8515 30.6216 57.4397 30.6216ZM30 4.21646C31.4781 4.21646 32.3639 4.58221 32.5259 4.78546C32.514 5.61813 32.0929 6.38626 31.4076 6.84677C31.235 6.83762 31.0648 6.83029 30.8949 6.82388C30.8377 6.82205 30.7805 6.81931 30.7233 6.81793C30.4784 6.81061 30.2367 6.80695 30 6.80695C29.832 6.80695 29.6608 6.80923 29.4882 6.8129C29.4049 6.81427 29.3211 6.81656 29.2374 6.81931C29.1376 6.82251 29.0369 6.82571 28.9362 6.82983C28.8213 6.83487 28.7064 6.8399 28.5919 6.84631C27.9066 6.3858 27.486 5.61768 27.4741 4.78546C27.6361 4.58221 28.5219 4.21646 30 4.21646ZM36.2943 37.2372C36.2288 37.0889 36.1505 36.9479 36.0622 36.8138H44.4809L40.8408 39.223L35.652 40.724L35.4758 40.7281C36.4746 39.8955 36.839 38.4737 36.2943 37.2372ZM26.7764 36.8138L25.5098 37.0779L24.5306 36.8138H26.7764ZM16.8782 53.0988L15.2399 55.5153C15.1396 55.6636 14.9876 55.7634 14.8119 55.7973C14.6365 55.8307 14.458 55.7941 14.3102 55.6934L3.09631 48.0753C2.79144 47.8683 2.71179 47.4518 2.9187 47.1469L4.5575 44.7299C4.65775 44.5821 4.80927 44.4818 4.98505 44.4484C5.02762 44.4402 5.07019 44.436 5.1123 44.436C5.24506 44.436 5.3746 44.4759 5.48676 44.5523L6.09238 44.9634C6.09238 44.9638 6.09283 44.9638 6.09283 44.9638L16.7006 52.17C17.0055 52.3769 17.0851 52.7939 16.8782 53.0988ZM48.4575 38.4206C48.4364 38.4357 48.4163 38.4521 48.3966 38.4695L42.8421 43.3896C41.2761 44.6178 39.5091 45.5095 37.5906 46.0396L34.3588 46.9327C32.2778 47.5081 30.065 47.6276 27.9597 47.2787C25.9081 46.9391 22.8703 46.5587 20.1801 47.1817C18.6218 47.5424 17.1991 48.4378 16.1641 49.6829L7.86804 44.0474L11.8945 39.1576C13.4175 37.7197 15.3488 36.866 17.1982 36.8138H17.2339C17.8075 36.8042 18.4145 36.9731 19.0567 37.153C19.1858 37.1887 19.3144 37.2249 19.4435 37.2597L25.2553 38.8275C25.3885 38.8632 25.5281 38.8673 25.6631 38.839L33.2748 37.2519C33.62 37.1805 33.9825 37.2505 34.2696 37.4451C34.455 37.571 34.5996 37.744 34.688 37.9449C34.9489 38.5368 34.7031 39.2317 34.1199 39.532L31.523 40.9071C31.1636 41.0976 30.9824 41.5096 31.0844 41.9032C31.187 42.2974 31.5454 42.5656 31.9528 42.5601L35.8049 42.4768C35.8813 42.475 35.9569 42.4635 36.0297 42.4425L41.4574 40.8723C41.543 40.8476 41.624 40.8101 41.6982 40.7611L47.1739 37.1365C47.6335 36.8527 48.2451 36.6193 48.5706 37.0995C48.8242 37.473 48.8301 38.1454 48.4575 38.4206Z" fill="#D8AB37"/>
</g>
<defs>
<clipPath id="clip0">
<rect width="60" height="60" fill="white"/>
</clipPath>
</defs>
</svg>
