<svg id="Layer_1" data-name="Layer 1" xmlns="http://www.w3.org/2000/svg" viewBox="0 0 201.86 37.91"><defs><style>.cls-1{fill:#333;}.cls-2{fill:#ff8522;}</style></defs><path class="cls-1" d="M67.18,27.21a5.15,5.15,0,0,1-1,3.22,6.19,6.19,0,0,1-2.67,2,9.73,9.73,0,0,1-3.66.67h-11V10.35H61a4.56,4.56,0,0,1,2.77.85,5.57,5.57,0,0,1,1.79,2.17,6.4,6.4,0,0,1,.62,2.77,6.2,6.2,0,0,1-.83,3.11A5,5,0,0,1,63,21.42a5.88,5.88,0,0,1,3.09,2.08A6,6,0,0,1,67.18,27.21ZM53.3,14.13v5.72h5.88a2.62,2.62,0,0,0,1.35-.35,2.57,2.57,0,0,0,1-1A3,3,0,0,0,61.87,17a3.25,3.25,0,0,0-.33-1.5,2.55,2.55,0,0,0-.9-1,2.28,2.28,0,0,0-1.26-.35Zm9.44,12.25a3.31,3.31,0,0,0-.36-1.55,2.86,2.86,0,0,0-.94-1.09,2.36,2.36,0,0,0-1.36-.4H53.3v6h6.56a2.8,2.8,0,0,0,1.45-.4,2.91,2.91,0,0,0,1-1.08A2.84,2.84,0,0,0,62.74,26.38Z" transform="translate(-1 -1)"/><path class="cls-1" d="M70,28.17a4.65,4.65,0,0,1,.91-2.83,5.84,5.84,0,0,1,2.55-1.88,9.9,9.9,0,0,1,3.74-.66,14.34,14.34,0,0,1,2.15.16,6.86,6.86,0,0,1,1.88.51v-.89a3.07,3.07,0,0,0-.94-2.42,4,4,0,0,0-2.8-.85,7.21,7.21,0,0,0-2.62.48,13.1,13.1,0,0,0-2.63,1.41L70.9,18.38a13.58,13.58,0,0,1,3.4-1.63A12.39,12.39,0,0,1,78,16.21,8.12,8.12,0,0,1,83.55,18a6.39,6.39,0,0,1,2,5.05v5.27a1.44,1.44,0,0,0,.24.94,1.15,1.15,0,0,0,.79.35v3.49l-1,.16a6.42,6.42,0,0,1-.79.06,2.85,2.85,0,0,1-1.93-.57A2.49,2.49,0,0,1,82,31.31l-.1-.86a7.32,7.32,0,0,1-2.72,2.17,7.75,7.75,0,0,1-3.32.77,6.56,6.56,0,0,1-3-.68,5.24,5.24,0,0,1-2.08-1.87A4.89,4.89,0,0,1,70,28.17ZM80.46,29a4.21,4.21,0,0,0,.58-.75,1.35,1.35,0,0,0,.22-.69V25.92a9,9,0,0,0-1.66-.49,9.41,9.41,0,0,0-1.7-.17,4.94,4.94,0,0,0-2.73.7,2.14,2.14,0,0,0-1.08,1.86A2.18,2.18,0,0,0,74.45,29a2.51,2.51,0,0,0,1,.9,3.47,3.47,0,0,0,1.6.34A5.4,5.4,0,0,0,79,29.9,4.69,4.69,0,0,0,80.46,29Z" transform="translate(-1 -1)"/><path class="cls-1" d="M106.09,33.07h-4.28V23.8a4.75,4.75,0,0,0-.71-2.9A2.33,2.33,0,0,0,99.15,20a3.87,3.87,0,0,0-1.74.44,5.38,5.38,0,0,0-1.59,1.2,4.62,4.62,0,0,0-1,1.77v9.68H90.51V16.46h3.87v3.1A6.31,6.31,0,0,1,96,17.74,7.34,7.34,0,0,1,98.3,16.6a9.5,9.5,0,0,1,2.74-.39,5.29,5.29,0,0,1,2.57.55,3.75,3.75,0,0,1,1.54,1.49,6.62,6.62,0,0,1,.74,2.1,13.38,13.38,0,0,1,.2,2.37Z" transform="translate(-1 -1)"/><path class="cls-1" d="M122.25,33.07l-4.89-7.18-2.27,2.23v4.95H110.8V9.71h4.29V23.92l6.75-7.46h4.54l-6.24,7.05,6.69,9.56Z" transform="translate(-1 -1)"/><path class="cls-1" d="M136.49,33.39a9.58,9.58,0,0,1-3.68-.68,7.91,7.91,0,0,1-2.76-1.88,8.58,8.58,0,0,1-1.75-2.76,9,9,0,0,1-.61-3.26,9.07,9.07,0,0,1,.61-3.29,8.54,8.54,0,0,1,1.75-2.75,7.91,7.91,0,0,1,2.76-1.88,9.39,9.39,0,0,1,3.68-.68,9.27,9.27,0,0,1,3.67.68,8.1,8.1,0,0,1,4.51,4.63,9.05,9.05,0,0,1,.59,3.29,8.93,8.93,0,0,1-.59,3.26,8.2,8.2,0,0,1-1.73,2.76,7.86,7.86,0,0,1-2.77,1.88A9.5,9.5,0,0,1,136.49,33.39Zm-4.38-8.58a5.4,5.4,0,0,0,.58,2.56,4.32,4.32,0,0,0,1.56,1.74,4.12,4.12,0,0,0,2.24.63,4,4,0,0,0,2.21-.64,4.75,4.75,0,0,0,1.59-1.76,5.81,5.81,0,0,0,0-5.1,4.6,4.6,0,0,0-1.59-1.76,4.19,4.19,0,0,0-4.45,0,4.49,4.49,0,0,0-1.56,1.75A5.46,5.46,0,0,0,132.11,24.81Z" transform="translate(-1 -1)"/><path class="cls-1" d="M159.09,20a7.69,7.69,0,0,0-3.49.76,4.55,4.55,0,0,0-2.21,2.16V33.07H149.1V16.46H153v3.43a7.39,7.39,0,0,1,2.27-2.72,5.42,5.42,0,0,1,2.91-1.09h.55a1.51,1.51,0,0,1,.32,0Z" transform="translate(-1 -1)"/><path class="cls-1" d="M172,33.39a6.79,6.79,0,0,1-3.42-.86,6.34,6.34,0,0,1-2.37-2.37v2.91h-3.74V9.71h4.28v9.73a6.7,6.7,0,0,1,2.36-2.37,7,7,0,0,1,6.38-.18,7,7,0,0,1,2.32,1.88,8.83,8.83,0,0,1,1.5,2.75,10,10,0,0,1,.53,3.32,9.37,9.37,0,0,1-.59,3.33,9,9,0,0,1-1.65,2.74,7.31,7.31,0,0,1-2.48,1.83A7.48,7.48,0,0,1,172,33.39Zm-1.18-3.65a4.44,4.44,0,0,0,1.87-.39,4.7,4.7,0,0,0,1.47-1.05,4.45,4.45,0,0,0,1-1.56,5.11,5.11,0,0,0,.34-1.86,5.66,5.66,0,0,0-.56-2.5,4.88,4.88,0,0,0-1.54-1.84,3.85,3.85,0,0,0-2.29-.69,3.79,3.79,0,0,0-1.77.43,5.06,5.06,0,0,0-1.51,1.14,5.94,5.94,0,0,0-1,1.64V27a3.16,3.16,0,0,0,.63,1.13,4.42,4.42,0,0,0,1,.86,5.49,5.49,0,0,0,1.2.57A4.06,4.06,0,0,0,170.8,29.74Z" transform="translate(-1 -1)"/><path class="cls-1" d="M183.69,14V9.71H188V14Zm0,19.1V16.3H188V33.07Z" transform="translate(-1 -1)"/><path class="cls-1" d="M202.86,32.24l-1.31.51a9.94,9.94,0,0,1-1.65.46,8.86,8.86,0,0,1-1.77.18A5.72,5.72,0,0,1,196,33a3.45,3.45,0,0,1-1.58-1.32,4.19,4.19,0,0,1-.6-2.36V19.76h-2.2v-3.3h2.2V11h4.29v5.44h3.52v3.3h-3.52v8.08a1.59,1.59,0,0,0,.48,1.23,1.64,1.64,0,0,0,1.12.38,3.88,3.88,0,0,0,1.31-.22l1-.38Z" transform="translate(-1 -1)"/><path class="cls-2" d="M10.66,4.76c-5,2.07-9.13,3.81-9.23,3.88C1,8.9,1,9.06,1,11.72c0,2.32,0,2.48.15,2.75.25.5.54.6,1.81.6H4V27.66h-.3a1.18,1.18,0,0,0-1,.59c-.13.27-.14.43-.14,2.07V32.1H2.22a1.18,1.18,0,0,0-1.07.59C1,33,1,33.12,1,35.51s0,2.54.15,2.81a1,1,0,0,0,.44.45c.29.14.4.14,18.37.14s18.08,0,18.37-.14a1,1,0,0,0,.44-.45c.14-.27.15-.43.15-2.81s0-2.54-.15-2.82a1.18,1.18,0,0,0-1.07-.59h-.33V30.32c0-1.64,0-1.8-.15-2.07a1.18,1.18,0,0,0-1-.59h-.29V15.07H37c1.27,0,1.56-.1,1.81-.6.14-.27.15-.43.15-2.74s0-2.46-.15-2.74a.94.94,0,0,0-.44-.44C38.17,8.47,34,6.73,29.12,4.7,23.26,2.27,20.11,1,20,1S16.12,2.49,10.66,4.76Zm17.63,2,8.37,3.48,0,1.3,0,1.3H3.22l0-1.3,0-1.3L10,7.43c6.4-2.66,9.88-4.11,9.88-4.13ZM8.48,21.36v6.3H6.26V15.07H8.48Zm20.74,0v6.3h-.3a1.17,1.17,0,0,0-1,.59c-.14.27-.15.43-.15,2.07V32.1H12.18V30.32c0-1.64,0-1.8-.14-2.07a1.18,1.18,0,0,0-1-.59h-.3V15.07H29.22Zm4.44,0v6.3H31.44V15.07h2.22ZM10,31V32.1H4.78V29.88H10Zm25.18,0V32.1H30V29.88h5.18Zm1.56,4.52v1.18H3.22V34.32H36.7Z" transform="translate(-1 -1)"/><path class="cls-2" d="M12.76,8.55a1.2,1.2,0,0,0-.58,1,1.16,1.16,0,0,0,.6,1c.28.15.42.15,7.18.15s6.9,0,7.19-.15a1.17,1.17,0,0,0,.59-1,1.17,1.17,0,0,0-.59-1c-.29-.15-.42-.15-7.2-.15S13,8.41,12.76,8.55Z" transform="translate(-1 -1)"/><path class="cls-2" d="M19.43,16.7a1.19,1.19,0,0,0-.58,1.12v.39l-.39.18A3.93,3.93,0,0,0,17,19.83a3.25,3.25,0,0,0,.62,3.86,3.31,3.31,0,0,0,2.3,1,1.18,1.18,0,0,1,1.14,1.12,1.11,1.11,0,1,1-2.22,0,1.17,1.17,0,0,0-.59-1,1.07,1.07,0,0,0-1,0c-1.18.6-.46,3,1.15,3.86l.48.25v.4a1.18,1.18,0,0,0,.59,1.12,1.11,1.11,0,0,0,1.63-1.12V29l.39-.18a4,4,0,0,0,1.46-1.43,3.28,3.28,0,0,0-.63-3.88,3.35,3.35,0,0,0-2.31-1,1.11,1.11,0,1,1,1.09-1.11,1.19,1.19,0,0,0,1.11,1.11,1.22,1.22,0,0,0,.52-.15c.69-.35.78-1.34.22-2.49a4,4,0,0,0-1.46-1.44l-.39-.18v-.39A1.12,1.12,0,0,0,19.43,16.7Z" transform="translate(-1 -1)"/></svg>