<svg width="20" height="20" viewBox="0 0 20 20" fill="none" xmlns="http://www.w3.org/2000/svg">
<path d="M18.2995 4.90966C17.3875 4.18282 16.1003 3.58774 14.4736 3.14102C11.345 2.28188 7.81699 2.18915 6.44535 2.18915C2.89137 2.18915 0 5.08055 0 8.63454V11.3654C0 14.9194 2.89137 17.8108 6.44535 17.8108C8.08414 17.8108 9.31488 17.2974 10.6179 16.7539C11.9654 16.1918 13.3587 15.6107 15.3183 15.6107C17.8998 15.6107 20 13.5104 20 10.929V8.19813C20 6.91536 19.4279 5.80895 18.2995 4.90966ZM17.9705 11.5875C18.1184 11.7447 18.3657 11.7521 18.5227 11.6042C18.7877 11.3548 19.0207 11.0768 19.2188 10.7776V10.929C19.2188 13.0797 17.469 14.8294 15.3183 14.8294C13.2023 14.8294 11.7356 15.4412 10.3171 16.0329C9.08836 16.5454 7.92773 17.0295 6.44535 17.0295C3.44457 17.0295 0.981719 14.6837 0.793281 11.7296C1.89016 13.7247 4.01238 15.0799 6.44535 15.0799C8.08414 15.0799 9.31488 14.5665 10.6179 14.023C11.9654 13.4609 13.3587 12.8797 15.3183 12.8797C15.4639 12.8797 15.611 12.8729 15.7555 12.8593C15.9703 12.8392 16.1281 12.6488 16.108 12.434C16.0879 12.2192 15.8972 12.0615 15.6827 12.0815C15.5622 12.0928 15.4397 12.0985 15.3183 12.0985C13.2023 12.0985 11.7356 12.7103 10.3171 13.302C9.08836 13.8145 7.92773 14.2986 6.44535 14.2986C3.32215 14.2986 0.78125 11.7577 0.78125 8.63458C0.78125 5.51137 3.32215 2.97044 6.44535 2.97044C7.78531 2.97044 11.2298 3.06048 14.2667 3.89442C17.5526 4.7968 19.2188 6.24477 19.2188 8.19813C19.2188 9.26434 18.7698 10.2985 17.9872 11.0354C17.8301 11.1833 17.8227 11.4305 17.9705 11.5875Z" fill="#D8AB37"/>
<path d="M17.6494 11.8369C17.5575 11.6417 17.3247 11.558 17.1296 11.6498C17.1268 11.6511 17.1231 11.653 17.1203 11.6543C16.9274 11.7508 16.8492 11.9855 16.9456 12.1784C17.014 12.3153 17.152 12.3944 17.2953 12.3944C17.3532 12.3944 17.412 12.3815 17.4674 12.3542C17.6589 12.2608 17.7404 12.0304 17.6494 11.8369Z" fill="#D8AB37"/>
<path d="M9.26514 3.8618L9.24503 3.86016C9.02964 3.84336 8.84171 4.00344 8.82456 4.21852C8.80741 4.43356 8.96784 4.6218 9.18288 4.63899L9.20284 4.64055C9.21343 4.64141 9.22393 4.64184 9.2344 4.64184C9.436 4.64184 9.60698 4.48676 9.62338 4.28234C9.64057 4.06727 9.48018 3.87902 9.26514 3.8618Z" fill="#D8AB37"/>
<path d="M18.1936 7.14583C17.8061 6.38005 16.944 5.71825 15.6311 5.17888C14.5688 4.74243 13.4071 4.46673 12.6195 4.31223C12.1475 4.2197 11.6529 4.13704 11.1494 4.06665C10.9359 4.03649 10.7384 4.18571 10.7084 4.39942C10.6785 4.61309 10.8275 4.81048 11.0412 4.84036C11.5307 4.9088 12.0111 4.98907 12.4692 5.07891C15.1524 5.60513 16.9848 6.48704 17.4965 7.49845C17.604 7.71099 17.6562 7.93985 17.6562 8.19813C17.6562 9.48724 16.6075 10.536 15.3183 10.536C14.0149 10.536 12.7491 10.749 11.4487 11.1873C10.8887 11.3761 10.3448 11.6017 9.81894 11.82C9.47109 11.9643 9.1114 12.1136 8.75437 12.2489C7.85339 12.5904 7.1628 12.7361 6.44534 12.7361C4.1837 12.7361 2.3437 10.8961 2.3437 8.63454C2.3437 6.3729 4.1837 4.5329 6.44534 4.5329C6.88655 4.5329 7.33448 4.54126 7.77659 4.55774C7.85163 4.56052 7.92675 4.56352 8.00191 4.56684C8.21726 4.57661 8.39988 4.40934 8.40937 4.1938C8.4189 3.97829 8.25187 3.79583 8.03636 3.78634C7.95941 3.78294 7.88245 3.77985 7.80566 3.777C7.3539 3.76016 6.8962 3.75165 6.4453 3.75165C3.75288 3.75165 1.56241 5.94208 1.56241 8.63454C1.56241 11.3269 3.75284 13.5174 6.4453 13.5174C7.26308 13.5174 8.03644 13.3565 9.0312 12.9795C9.3996 12.8399 9.76499 12.6882 10.1184 12.5415C10.6322 12.3283 11.1635 12.1078 11.6982 11.9276C12.9169 11.5169 14.1011 11.3172 15.3183 11.3172C17.0382 11.3173 18.4375 9.91806 18.4375 8.19817C18.4375 7.8145 18.3577 7.47028 18.1936 7.14583Z" fill="#D8AB37"/>
<path d="M6.81947 5.30548C5.72744 5.30548 4.83896 6.11114 4.83896 7.10146C4.83896 8.09177 5.72744 8.89743 6.81947 8.89743C7.91154 8.89743 8.79997 8.09177 8.79997 7.10146C8.79997 6.11114 7.91154 5.30548 6.81947 5.30548ZM6.81947 8.11614C6.15818 8.11614 5.62021 7.66095 5.62021 7.10142C5.62021 6.54193 6.15818 6.08669 6.81947 6.08669C7.48076 6.08669 8.01872 6.54189 8.01872 7.10142C8.01872 7.66095 7.48076 8.11614 6.81947 8.11614Z" fill="#D8AB37"/>
</svg>
