<svg width="18" height="18" viewBox="0 0 18 18" fill="none" xmlns="http://www.w3.org/2000/svg">
<path d="M7.41925 14.8246C3.33209 14.8246 0.00695801 11.4995 0.00695801 7.41229C0.00695801 3.32513 3.33209 0 7.41925 0C11.5064 0 14.8315 3.32513 14.8315 7.41229C14.8315 11.4995 11.5064 14.8246 7.41925 14.8246ZM7.41925 1.40517C4.10691 1.40517 1.41213 4.09995 1.41213 7.41229C1.41213 10.7246 4.10691 13.4194 7.41925 13.4194C10.7316 13.4194 13.4264 10.7246 13.4264 7.41229C13.4264 4.09995 10.7316 1.40517 7.41925 1.40517ZM17.7874 17.7942C18.0618 17.5198 18.0618 17.0749 17.7874 16.8006L14.6434 13.6565C14.369 13.3821 13.9241 13.3821 13.6497 13.6565C13.3754 13.9309 13.3754 14.3758 13.6497 14.6501L16.7938 17.7942C16.931 17.9314 17.1108 18 17.2906 18C17.4705 18 17.6502 17.9314 17.7874 17.7942Z" fill="white"/>
</svg>
