<svg width="20" height="16" viewBox="0 0 20 16" fill="none" xmlns="http://www.w3.org/2000/svg">
<path d="M7.5 7.71198C8.49456 7.71198 9.44839 7.32668 10.1517 6.64084C10.8549 5.95501 11.25 5.02482 11.25 4.0549C11.25 3.08498 10.8549 2.15479 10.1517 1.46896C9.44839 0.783125 8.49456 0.397827 7.5 0.397827C6.50544 0.397827 5.55161 0.783125 4.84835 1.46896C4.14509 2.15479 3.75 3.08498 3.75 4.0549C3.75 5.02482 4.14509 5.95501 4.84835 6.64084C5.55161 7.32668 6.50544 7.71198 7.5 7.71198ZM10 4.0549C10 4.70151 9.73661 5.32164 9.26777 5.77886C8.79893 6.23609 8.16304 6.49295 7.5 6.49295C6.83696 6.49295 6.20107 6.23609 5.73223 5.77886C5.26339 5.32164 5 4.70151 5 4.0549C5 3.40829 5.26339 2.78816 5.73223 2.33094C6.20107 1.87372 6.83696 1.61685 7.5 1.61685C8.16304 1.61685 8.79893 1.87372 9.26777 2.33094C9.73661 2.78816 10 3.40829 10 4.0549ZM15 13.8071C15 15.0261 13.75 15.0261 13.75 15.0261H1.25C1.25 15.0261 0 15.0261 0 13.8071C0 12.5881 1.25 8.931 7.5 8.931C13.75 8.931 15 12.5881 15 13.8071ZM13.75 13.8022C13.7487 13.5023 13.5575 12.6003 12.71 11.7738C11.895 10.979 10.3612 10.15 7.5 10.15C4.6375 10.15 3.105 10.979 2.29 11.7738C1.4425 12.6003 1.2525 13.5023 1.25 13.8022H13.75Z" fill="#68697D"/>
<path fill-rule="evenodd" clip-rule="evenodd" d="M19.8175 4.23335C19.8757 4.28998 19.9219 4.35724 19.9534 4.4313C19.9849 4.50536 20.0011 4.58476 20.0011 4.66494C20.0011 4.74512 19.9849 4.82452 19.9534 4.89858C19.9219 4.97264 19.8757 5.03991 19.8175 5.09653L16.0675 8.75408C16.0094 8.81085 15.9405 8.85589 15.8645 8.88662C15.7886 8.91735 15.7072 8.93317 15.625 8.93317C15.5428 8.93317 15.4614 8.91735 15.3854 8.88662C15.3095 8.85589 15.2405 8.81085 15.1825 8.75408L13.3075 6.9253C13.1901 6.81084 13.1242 6.65559 13.1242 6.49371C13.1242 6.33184 13.1901 6.17659 13.3075 6.06212C13.4249 5.94766 13.584 5.88335 13.75 5.88335C13.916 5.88335 14.0751 5.94766 14.1925 6.06212L15.625 7.46053L18.9325 4.23335C18.9905 4.17658 19.0595 4.13154 19.1354 4.10081C19.2114 4.07008 19.2928 4.05426 19.375 4.05426C19.4572 4.05426 19.5386 4.07008 19.6145 4.10081C19.6905 4.13154 19.7594 4.17658 19.8175 4.23335Z" fill="#68697D"/>
</svg>
