<svg width="15" height="16" viewBox="0 0 15 16" fill="none" xmlns="http://www.w3.org/2000/svg">
<path d="M4.25475 0.479492C4.39399 0.479492 4.52752 0.533434 4.62598 0.62945C4.72444 0.725466 4.77975 0.855693 4.77975 0.99148V1.9489H10.4175V0.998063C10.4175 0.862275 10.4728 0.732049 10.5713 0.636033C10.6697 0.540016 10.8033 0.486075 10.9425 0.486075C11.0817 0.486075 11.2153 0.540016 11.3137 0.636033C11.4122 0.732049 11.4675 0.862275 11.4675 0.998063V1.9489H13.5C13.8977 1.9489 14.2791 2.10292 14.5604 2.37709C14.8417 2.65127 14.9998 3.02315 15 3.41099V13.6456C14.9998 14.0335 14.8417 14.4054 14.5604 14.6795C14.2791 14.9537 13.8977 15.1077 13.5 15.1077H1.5C1.10231 15.1077 0.720888 14.9537 0.439605 14.6795C0.158322 14.4054 0.000198847 14.0335 0 13.6456L0 3.41099C0.000198847 3.02315 0.158322 2.65127 0.439605 2.37709C0.720888 2.10292 1.10231 1.9489 1.5 1.9489H3.72975V0.990749C3.72995 0.855088 3.78535 0.72505 3.88378 0.629191C3.98222 0.533333 4.11564 0.479492 4.25475 0.479492V0.479492ZM1.05 6.14208V13.6456C1.05 13.7033 1.06164 13.7603 1.08425 13.8136C1.10687 13.8668 1.14002 13.9152 1.1818 13.9559C1.22359 13.9967 1.2732 14.029 1.32779 14.0511C1.38239 14.0731 1.44091 14.0845 1.5 14.0845H13.5C13.5591 14.0845 13.6176 14.0731 13.6722 14.0511C13.7268 14.029 13.7764 13.9967 13.8182 13.9559C13.86 13.9152 13.8931 13.8668 13.9157 13.8136C13.9384 13.7603 13.95 13.7033 13.95 13.6456V6.15232L1.05 6.14208ZM5.00025 11.172V12.3905H3.75V11.172H5.00025ZM8.12475 11.172V12.3905H6.87525V11.172H8.12475ZM11.25 11.172V12.3905H9.99975V11.172H11.25ZM5.00025 8.26318V9.48171H3.75V8.26318H5.00025ZM8.12475 8.26318V9.48171H6.87525V8.26318H8.12475ZM11.25 8.26318V9.48171H9.99975V8.26318H11.25ZM3.72975 2.97214H1.5C1.44091 2.97214 1.38239 2.98349 1.32779 3.00555C1.2732 3.0276 1.22359 3.05993 1.1818 3.10068C1.14002 3.14143 1.10687 3.18981 1.08425 3.24305C1.06164 3.29629 1.05 3.35336 1.05 3.41099V5.11884L13.95 5.12908V3.41099C13.95 3.35336 13.9384 3.29629 13.9157 3.24305C13.8931 3.18981 13.86 3.14143 13.8182 3.10068C13.7764 3.05993 13.7268 3.0276 13.6722 3.00555C13.6176 2.98349 13.5591 2.97214 13.5 2.97214H11.4675V3.65162C11.4675 3.78741 11.4122 3.91764 11.3137 4.01366C11.2153 4.10967 11.0817 4.16361 10.9425 4.16361C10.8033 4.16361 10.6697 4.10967 10.5713 4.01366C10.4728 3.91764 10.4175 3.78741 10.4175 3.65162V2.97214H4.77975V3.64504C4.77975 3.78083 4.72444 3.91106 4.62598 4.00707C4.52752 4.10309 4.39399 4.15703 4.25475 4.15703C4.11551 4.15703 3.98198 4.10309 3.88352 4.00707C3.78506 3.91106 3.72975 3.78083 3.72975 3.64504V2.97214Z" fill="#68697D"/>
</svg>
