<svg width="17" height="17" viewBox="0 0 17 17" fill="none" xmlns="http://www.w3.org/2000/svg">
<path d="M1 8.84331C1 12.8829 4.35775 16.1575 8.5 16.1575C12.6422 16.1575 16 12.8829 16 8.84331C16 4.80371 12.6422 1.52917 8.5 1.52917C4.35775 1.52917 1 4.80371 1 8.84331Z" stroke="#68697D" stroke-width="1.5" stroke-linecap="round" stroke-linejoin="round"/>
<path d="M9.25006 1.56665C9.25006 1.56665 11.5001 4.45573 11.5001 8.84422C11.5001 13.2327 9.25006 16.1218 9.25006 16.1218" stroke="#68697D" stroke-width="1.5" stroke-linecap="round" stroke-linejoin="round"/>
<path d="M7.75006 16.1218C7.75006 16.1218 5.50006 13.2327 5.50006 8.84422C5.50006 4.45573 7.75006 1.56665 7.75006 1.56665" stroke="#68697D" stroke-width="1.5" stroke-linecap="round" stroke-linejoin="round"/>
<path d="M1.47253 11.4033H15.5275" stroke="#68697D" stroke-width="1.5" stroke-linecap="round" stroke-linejoin="round"/>
<path d="M1.47253 6.28394H15.5275" stroke="#68697D" stroke-width="1.5" stroke-linecap="round" stroke-linejoin="round"/>
</svg>
